<svg width="297" height="72" viewBox="0 0 297 72" fill="none" xmlns="http://www.w3.org/2000/svg">
<path d="M40.9 71L17.3 40V71H0.2V0.799998H17.3V31.6L40.7 0.799998H60.8L33.6 35.2L61.8 71H40.9ZM125.027 15.2V71H107.927V63.4C106.193 65.8667 103.827 67.8667 100.827 69.4C97.8932 70.8667 94.6266 71.6 91.0266 71.6C86.7599 71.6 82.9932 70.6667 79.7266 68.8C76.4599 66.8667 73.9266 64.1 72.1266 60.5C70.3266 56.9 69.4266 52.6667 69.4266 47.8V15.2H86.4266V45.5C86.4266 49.2333 87.3932 52.1333 89.3266 54.2C91.2599 56.2667 93.8599 57.3 97.1266 57.3C100.46 57.3 103.093 56.2667 105.027 54.2C106.96 52.1333 107.927 49.2333 107.927 45.5V15.2H125.027ZM168.409 56.5V71H159.709C153.509 71 148.676 69.5 145.209 66.5C141.743 63.4333 140.009 58.4667 140.009 51.6V29.4H133.209V15.2H140.009V1.6H157.109V15.2H168.309V29.4H157.109V51.8C157.109 53.4667 157.509 54.6667 158.309 55.4C159.109 56.1333 160.443 56.5 162.309 56.5H168.409ZM203.334 71.8C197.868 71.8 192.934 70.6333 188.534 68.3C184.201 65.9667 180.768 62.6333 178.234 58.3C175.768 53.9667 174.534 48.9 174.534 43.1C174.534 37.3667 175.801 32.3333 178.334 28C180.868 23.6 184.334 20.2333 188.734 17.9C193.134 15.5667 198.068 14.4 203.534 14.4C209.001 14.4 213.934 15.5667 218.334 17.9C222.734 20.2333 226.201 23.6 228.734 28C231.268 32.3333 232.534 37.3667 232.534 43.1C232.534 48.8333 231.234 53.9 228.634 58.3C226.101 62.6333 222.601 65.9667 218.134 68.3C213.734 70.6333 208.801 71.8 203.334 71.8ZM203.334 57C206.601 57 209.368 55.8 211.634 53.4C213.968 51 215.134 47.5667 215.134 43.1C215.134 38.6333 214.001 35.2 211.734 32.8C209.534 30.4 206.801 29.2 203.534 29.2C200.201 29.2 197.434 30.4 195.234 32.8C193.034 35.1333 191.934 38.5667 191.934 43.1C191.934 47.5667 193.001 51 195.134 53.4C197.334 55.8 200.068 57 203.334 57Z" fill="black"/>
<path d="M267.006 71.8C261.54 71.8 256.606 70.6333 252.206 68.3C247.873 65.9667 244.44 62.6333 241.906 58.3C239.44 53.9667 238.206 48.9 238.206 43.1C238.206 37.3667 239.473 32.3333 242.006 28C244.54 23.6 248.006 20.2333 252.406 17.9C256.806 15.5667 261.74 14.4 267.206 14.4C272.673 14.4 277.606 15.5667 282.006 17.9C286.406 20.2333 289.873 23.6 292.406 28C294.94 32.3333 296.206 37.3667 296.206 43.1C296.206 48.8333 294.906 53.9 292.306 58.3C289.773 62.6333 286.273 65.9667 281.806 68.3C277.406 70.6333 272.473 71.8 267.006 71.8ZM267.006 57C270.273 57 273.04 55.8 275.306 53.4C277.64 51 278.806 47.5667 278.806 43.1C278.806 38.6333 277.673 35.2 275.406 32.8C273.206 30.4 270.473 29.2 267.206 29.2C263.873 29.2 261.106 30.4 258.906 32.8C256.706 35.1333 255.606 38.5667 255.606 43.1C255.606 47.5667 256.673 51 258.806 53.4C261.006 55.8 263.74 57 267.006 57Z" fill="#2A9D8F"/>
<path d="M40.9 71L40.1043 71.6057L40.4045 72H40.9V71ZM17.3 40L18.0957 39.3943L16.3 37.0356V40H17.3ZM17.3 71V72H18.3V71H17.3ZM0.2 71H-0.8V72H0.2V71ZM0.2 0.799998V-0.200002H-0.8V0.799998H0.2ZM17.3 0.799998H18.3V-0.200002H17.3V0.799998ZM17.3 31.6H16.3V34.5693L18.0963 32.2049L17.3 31.6ZM40.7 0.799998V-0.200002H40.2039L39.9037 0.195046L40.7 0.799998ZM60.8 0.799998L61.5844 1.42023L62.8655 -0.200002H60.8V0.799998ZM33.6 35.2L32.8156 34.5798L32.3261 35.1988L32.8144 35.8188L33.6 35.2ZM61.8 71V72H63.8607L62.5856 70.3812L61.8 71ZM41.6957 70.3943L18.0957 39.3943L16.5043 40.6057L40.1043 71.6057L41.6957 70.3943ZM16.3 40V71H18.3V40H16.3ZM17.3 70H0.2V72H17.3V70ZM1.2 71V0.799998H-0.8V71H1.2ZM0.2 1.8H17.3V-0.200002H0.2V1.8ZM16.3 0.799998V31.6H18.3V0.799998H16.3ZM18.0963 32.2049L41.4963 1.40495L39.9037 0.195046L16.5037 30.995L18.0963 32.2049ZM40.7 1.8H60.8V-0.200002H40.7V1.8ZM60.0156 0.179762L32.8156 34.5798L34.3844 35.8202L61.5844 1.42023L60.0156 0.179762ZM32.8144 35.8188L61.0144 71.6188L62.5856 70.3812L34.3856 34.5812L32.8144 35.8188ZM61.8 70H40.9V72H61.8V70ZM125.027 15.2H126.027V14.2H125.027V15.2ZM125.027 71V72H126.027V71H125.027ZM107.927 71H106.927V72H107.927V71ZM107.927 63.4H108.927V60.2376L107.108 62.8251L107.927 63.4ZM100.827 69.4L101.274 70.2945L101.282 70.2904L100.827 69.4ZM79.7266 68.8L79.2172 69.6606L79.2238 69.6645L79.2304 69.6682L79.7266 68.8ZM72.1266 60.5L71.2321 60.9472L72.1266 60.5ZM69.4266 15.2V14.2H68.4266V15.2H69.4266ZM86.4266 15.2H87.4266V14.2H86.4266V15.2ZM89.3266 54.2L88.5963 54.8832L88.5963 54.8832L89.3266 54.2ZM105.027 54.2L104.296 53.5168L105.027 54.2ZM107.927 15.2V14.2H106.927V15.2H107.927ZM124.027 15.2V71H126.027V15.2H124.027ZM125.027 70H107.927V72H125.027V70ZM108.927 71V63.4H106.927V71H108.927ZM107.108 62.8251C105.479 65.1436 103.244 67.0415 100.371 68.5096L101.282 70.2904C104.409 68.6919 106.907 66.5898 108.745 63.9749L107.108 62.8251ZM100.379 68.5056C97.598 69.8962 94.4867 70.6 91.0266 70.6V72.6C94.7664 72.6 98.1884 71.8371 101.274 70.2944L100.379 68.5056ZM91.0266 70.6C86.9102 70.6 83.3189 69.701 80.2227 67.9318L79.2304 69.6682C82.6675 71.6323 86.6096 72.6 91.0266 72.6V70.6ZM80.2359 67.9394C77.1448 66.11 74.7405 63.4917 73.021 60.0528L71.2321 60.9472C73.1127 64.7083 75.775 67.6233 79.2172 69.6606L80.2359 67.9394ZM73.021 60.0528C71.3035 56.6177 70.4266 52.5435 70.4266 47.8H68.4266C68.4266 52.7899 69.3497 57.1823 71.2321 60.9472L73.021 60.0528ZM70.4266 47.8V15.2H68.4266V47.8H70.4266ZM69.4266 16.2H86.4266V14.2H69.4266V16.2ZM85.4266 15.2V45.5H87.4266V15.2H85.4266ZM85.4266 45.5C85.4266 49.4039 86.4402 52.5783 88.5963 54.8832L90.0568 53.5168C88.3463 51.6883 87.4266 49.0628 87.4266 45.5H85.4266ZM88.5963 54.8832C90.7484 57.1837 93.6299 58.3 97.1266 58.3V56.3C94.0899 56.3 91.7713 55.3496 90.0568 53.5168L88.5963 54.8832ZM97.1266 58.3C100.683 58.3 103.601 57.188 105.757 54.8832L104.296 53.5168C102.586 55.3453 100.237 56.3 97.1266 56.3V58.3ZM105.757 54.8832C107.913 52.5783 108.927 49.4039 108.927 45.5H106.927C106.927 49.0628 106.007 51.6883 104.296 53.5168L105.757 54.8832ZM108.927 45.5V15.2H106.927V45.5H108.927ZM107.927 16.2H125.027V14.2H107.927V16.2ZM168.409 56.5H169.409V55.5H168.409V56.5ZM168.409 71V72H169.409V71H168.409ZM145.209 66.5L144.547 67.249L144.555 67.2562L145.209 66.5ZM140.009 29.4H141.009V28.4H140.009V29.4ZM133.209 29.4H132.209V30.4H133.209V29.4ZM133.209 15.2V14.2H132.209V15.2H133.209ZM140.009 15.2V16.2H141.009V15.2H140.009ZM140.009 1.6V0.599999H139.009V1.6H140.009ZM157.109 1.6H158.109V0.599999H157.109V1.6ZM157.109 15.2H156.109V16.2H157.109V15.2ZM168.309 15.2H169.309V14.2H168.309V15.2ZM168.309 29.4V30.4H169.309V29.4H168.309ZM157.109 29.4V28.4H156.109V29.4H157.109ZM158.309 55.4L157.634 56.1372L157.634 56.1372L158.309 55.4ZM167.409 56.5V71H169.409V56.5H167.409ZM168.409 70H159.709V72H168.409V70ZM159.709 70C153.664 70 149.093 68.5386 145.864 65.7438L144.555 67.2562C148.259 70.4614 153.354 72 159.709 72V70ZM145.872 65.751C142.706 62.9506 141.009 58.3204 141.009 51.6H139.009C139.009 58.6129 140.779 63.9161 144.547 67.249L145.872 65.751ZM141.009 51.6V29.4H139.009V51.6H141.009ZM140.009 28.4H133.209V30.4H140.009V28.4ZM134.209 29.4V15.2H132.209V29.4H134.209ZM133.209 16.2H140.009V14.2H133.209V16.2ZM141.009 15.2V1.6H139.009V15.2H141.009ZM140.009 2.6H157.109V0.599999H140.009V2.6ZM156.109 1.6V15.2H158.109V1.6H156.109ZM157.109 16.2H168.309V14.2H157.109V16.2ZM167.309 15.2V29.4H169.309V15.2H167.309ZM168.309 28.4H157.109V30.4H168.309V28.4ZM156.109 29.4V51.8H158.109V29.4H156.109ZM156.109 51.8C156.109 53.598 156.538 55.1329 157.634 56.1372L158.985 54.6628C158.481 54.2004 158.109 53.3354 158.109 51.8H156.109ZM157.634 56.1372C158.712 57.1255 160.358 57.5 162.309 57.5V55.5C160.527 55.5 159.507 55.1412 158.985 54.6628L157.634 56.1372ZM162.309 57.5H168.409V55.5H162.309V57.5ZM188.534 68.3L188.06 69.1805L188.066 69.1835L188.534 68.3ZM178.234 58.3L177.365 58.7947L177.371 58.8047L178.234 58.3ZM178.334 28L179.198 28.5047L179.201 28.499L178.334 28ZM188.734 17.9L189.203 18.7835L189.203 18.7835L188.734 17.9ZM218.334 17.9L217.866 18.7835L217.866 18.7835L218.334 17.9ZM228.734 28L227.868 28.499L227.871 28.5047L228.734 28ZM228.634 58.3L227.773 57.7913L227.771 57.7953L228.634 58.3ZM218.134 68.3L217.671 67.4136L217.666 67.4165L218.134 68.3ZM211.634 53.4L210.917 52.7029L210.912 52.7081L210.907 52.7134L211.634 53.4ZM211.734 32.8L210.997 33.4757L211.002 33.4812L211.007 33.4866L211.734 32.8ZM195.234 32.8L195.962 33.4861L195.972 33.4757L195.234 32.8ZM195.134 53.4L194.387 54.0644L194.392 54.0701L194.397 54.0757L195.134 53.4ZM203.334 70.8C198.015 70.8 193.245 69.6661 189.003 67.4165L188.066 69.1835C192.624 71.6006 197.721 72.8 203.334 72.8V70.8ZM189.008 67.4195C184.84 65.1751 181.54 61.9733 179.098 57.7953L177.371 58.8047C179.995 63.2933 183.562 66.7582 188.06 69.1805L189.008 67.4195ZM179.103 57.8053C176.736 53.6457 175.534 48.7551 175.534 43.1H173.534C173.534 49.0449 174.8 54.2876 177.365 58.7947L179.103 57.8053ZM175.534 43.1C175.534 37.5184 176.766 32.6642 179.198 28.5047L177.471 27.4953C174.836 32.0025 173.534 37.2149 173.534 43.1H175.534ZM179.201 28.499C181.642 24.2587 184.972 21.0268 189.203 18.7835L188.266 17.0165C183.696 19.4398 180.093 22.9413 177.468 27.501L179.201 28.499ZM189.203 18.7835C193.445 16.5339 198.215 15.4 203.534 15.4V13.4C197.921 13.4 192.824 14.5994 188.266 17.0165L189.203 18.7835ZM203.534 15.4C208.854 15.4 213.624 16.5339 217.866 18.7835L218.803 17.0165C214.245 14.5994 209.148 13.4 203.534 13.4V15.4ZM217.866 18.7835C222.096 21.0268 225.426 24.2587 227.868 28.499L229.601 27.501C226.976 22.9413 223.372 19.4398 218.803 17.0165L217.866 18.7835ZM227.871 28.5047C230.303 32.6642 231.534 37.5184 231.534 43.1H233.534C233.534 37.2149 232.233 32.0025 229.598 27.4953L227.871 28.5047ZM231.534 43.1C231.534 48.6767 230.272 53.5635 227.773 57.7913L229.495 58.8087C232.197 54.2365 233.534 48.99 233.534 43.1H231.534ZM227.771 57.7953C225.333 61.9656 221.972 65.167 217.671 67.4137L218.597 69.1863C223.23 66.7663 226.869 63.301 229.498 58.8047L227.771 57.7953ZM217.666 67.4165C213.424 69.6661 208.654 70.8 203.334 70.8V72.8C208.948 72.8 214.045 71.6006 218.603 69.1835L217.666 67.4165ZM203.334 58C206.879 58 209.908 56.6842 212.361 54.0866L210.907 52.7134C208.827 54.9158 206.323 56 203.334 56V58ZM212.351 54.0971C214.92 51.4548 216.134 47.7375 216.134 43.1H214.134C214.134 47.3959 213.015 50.5452 210.917 52.7029L212.351 54.0971ZM216.134 43.1C216.134 38.4698 214.958 34.7565 212.461 32.1134L211.007 33.4866C213.044 35.6435 214.134 38.7968 214.134 43.1H216.134ZM212.472 32.1243C210.081 29.5169 207.08 28.2 203.534 28.2V30.2C206.522 30.2 208.987 31.2831 210.997 33.4757L212.472 32.1243ZM203.534 28.2C199.928 28.2 196.892 29.5121 194.497 32.1243L195.972 33.4757C197.977 31.2879 200.474 30.2 203.534 30.2V28.2ZM194.507 32.114C192.071 34.6977 190.934 38.4174 190.934 43.1H192.934C192.934 38.716 193.998 35.569 195.962 33.486L194.507 32.114ZM190.934 43.1C190.934 47.7158 192.037 51.4206 194.387 54.0644L195.882 52.7356C193.965 50.5794 192.934 47.4175 192.934 43.1H190.934ZM194.397 54.0757C196.787 56.6831 199.788 58 203.334 58V56C200.347 56 197.881 54.9169 195.872 52.7243L194.397 54.0757ZM252.206 68.3L251.732 69.1805L251.738 69.1835L252.206 68.3ZM241.906 58.3L241.037 58.7947L241.043 58.8047L241.906 58.3ZM242.006 28L242.87 28.5047L242.873 28.499L242.006 28ZM252.406 17.9L252.875 18.7835L252.875 18.7835L252.406 17.9ZM282.006 17.9L281.538 18.7835L281.538 18.7835L282.006 17.9ZM292.406 28L291.54 28.499L291.543 28.5047L292.406 28ZM292.306 58.3L291.445 57.7913L291.443 57.7953L292.306 58.3ZM281.806 68.3L281.343 67.4136L281.338 67.4165L281.806 68.3ZM275.306 53.4L274.589 52.7029L274.584 52.7081L274.579 52.7134L275.306 53.4ZM275.406 32.8L274.669 33.4757L274.674 33.4812L274.679 33.4866L275.406 32.8ZM258.906 32.8L259.634 33.4861L259.643 33.4757L258.906 32.8ZM258.806 53.4L258.059 54.0644L258.064 54.0701L258.069 54.0757L258.806 53.4ZM267.006 70.8C261.687 70.8 256.917 69.6661 252.675 67.4165L251.738 69.1835C256.296 71.6006 261.393 72.8 267.006 72.8V70.8ZM252.68 67.4195C248.512 65.1751 245.212 61.9733 242.77 57.7953L241.043 58.8047C243.667 63.2933 247.234 66.7582 251.732 69.1805L252.68 67.4195ZM242.775 57.8053C240.408 53.6457 239.206 48.7551 239.206 43.1H237.206C237.206 49.0449 238.472 54.2876 241.037 58.7947L242.775 57.8053ZM239.206 43.1C239.206 37.5184 240.438 32.6642 242.87 28.5047L241.143 27.4953C238.508 32.0025 237.206 37.2149 237.206 43.1H239.206ZM242.873 28.499C245.314 24.2587 248.644 21.0268 252.875 18.7835L251.938 17.0165C247.368 19.4398 243.765 22.9413 241.14 27.501L242.873 28.499ZM252.875 18.7835C257.117 16.5339 261.887 15.4 267.206 15.4V13.4C261.593 13.4 256.496 14.5994 251.938 17.0165L252.875 18.7835ZM267.206 15.4C272.526 15.4 277.296 16.5339 281.538 18.7835L282.475 17.0165C277.917 14.5994 272.82 13.4 267.206 13.4V15.4ZM281.538 18.7835C285.768 21.0268 289.098 24.2587 291.54 28.499L293.273 27.501C290.648 22.9413 287.044 19.4398 282.475 17.0165L281.538 18.7835ZM291.543 28.5047C293.975 32.6642 295.206 37.5184 295.206 43.1H297.206C297.206 37.2149 295.905 32.0025 293.27 27.4953L291.543 28.5047ZM295.206 43.1C295.206 48.6767 293.944 53.5635 291.445 57.7913L293.167 58.8087C295.869 54.2365 297.206 48.99 297.206 43.1H295.206ZM291.443 57.7953C289.005 61.9656 285.644 65.167 281.343 67.4137L282.269 69.1863C286.902 66.7663 290.541 63.301 293.17 58.8047L291.443 57.7953ZM281.338 67.4165C277.096 69.6661 272.326 70.8 267.006 70.8V72.8C272.62 72.8 277.717 71.6006 282.275 69.1835L281.338 67.4165ZM267.006 58C270.551 58 273.58 56.6842 276.033 54.0866L274.579 52.7134C272.499 54.9158 269.995 56 267.006 56V58ZM276.023 54.0971C278.592 51.4548 279.806 47.7375 279.806 43.1H277.806C277.806 47.3959 276.687 50.5452 274.589 52.7029L276.023 54.0971ZM279.806 43.1C279.806 38.4698 278.63 34.7565 276.133 32.1134L274.679 33.4866C276.716 35.6435 277.806 38.7968 277.806 43.1H279.806ZM276.143 32.1243C273.753 29.5169 270.752 28.2 267.206 28.2V30.2C270.194 30.2 272.659 31.2831 274.669 33.4757L276.143 32.1243ZM267.206 28.2C263.6 28.2 260.564 29.5121 258.169 32.1243L259.643 33.4757C261.649 31.2879 264.146 30.2 267.206 30.2V28.2ZM258.179 32.114C255.743 34.6977 254.606 38.4174 254.606 43.1H256.606C256.606 38.716 257.67 35.569 259.634 33.486L258.179 32.114ZM254.606 43.1C254.606 47.7158 255.709 51.4206 258.059 54.0644L259.554 52.7356C257.637 50.5794 256.606 47.4175 256.606 43.1H254.606ZM258.069 54.0757C260.459 56.6831 263.46 58 267.006 58V56C264.019 56 261.553 54.9169 259.543 52.7243L258.069 54.0757Z" fill="white"/>
<path d="M40.9 71L40.1043 71.6057L40.4045 72H40.9V71ZM17.3 40L18.0957 39.3943L16.3 37.0356V40H17.3ZM17.3 71V72H18.3V71H17.3ZM0.2 71H-0.8V72H0.2V71ZM0.2 0.799998V-0.200002H-0.8V0.799998H0.2ZM17.3 0.799998H18.3V-0.200002H17.3V0.799998ZM17.3 31.6H16.3V34.5693L18.0963 32.2049L17.3 31.6ZM40.7 0.799998V-0.200002H40.2039L39.9037 0.195046L40.7 0.799998ZM60.8 0.799998L61.5844 1.42023L62.8655 -0.200002H60.8V0.799998ZM33.6 35.2L32.8156 34.5798L32.3261 35.1988L32.8144 35.8188L33.6 35.2ZM61.8 71V72H63.8607L62.5856 70.3812L61.8 71ZM41.6957 70.3943L18.0957 39.3943L16.5043 40.6057L40.1043 71.6057L41.6957 70.3943ZM16.3 40V71H18.3V40H16.3ZM17.3 70H0.2V72H17.3V70ZM1.2 71V0.799998H-0.8V71H1.2ZM0.2 1.8H17.3V-0.200002H0.2V1.8ZM16.3 0.799998V31.6H18.3V0.799998H16.3ZM18.0963 32.2049L41.4963 1.40495L39.9037 0.195046L16.5037 30.995L18.0963 32.2049ZM40.7 1.8H60.8V-0.200002H40.7V1.8ZM60.0156 0.179762L32.8156 34.5798L34.3844 35.8202L61.5844 1.42023L60.0156 0.179762ZM32.8144 35.8188L61.0144 71.6188L62.5856 70.3812L34.3856 34.5812L32.8144 35.8188ZM61.8 70H40.9V72H61.8V70ZM125.027 15.2H126.027V14.2H125.027V15.2ZM125.027 71V72H126.027V71H125.027ZM107.927 71H106.927V72H107.927V71ZM107.927 63.4H108.927V60.2376L107.108 62.8251L107.927 63.4ZM100.827 69.4L101.274 70.2945L101.282 70.2904L100.827 69.4ZM79.7266 68.8L79.2172 69.6606L79.2238 69.6645L79.2304 69.6682L79.7266 68.8ZM72.1266 60.5L71.2321 60.9472L72.1266 60.5ZM69.4266 15.2V14.2H68.4266V15.2H69.4266ZM86.4266 15.2H87.4266V14.2H86.4266V15.2ZM89.3266 54.2L88.5963 54.8832L88.5963 54.8832L89.3266 54.2ZM105.027 54.2L104.296 53.5168L105.027 54.2ZM107.927 15.2V14.2H106.927V15.2H107.927ZM124.027 15.2V71H126.027V15.2H124.027ZM125.027 70H107.927V72H125.027V70ZM108.927 71V63.4H106.927V71H108.927ZM107.108 62.8251C105.479 65.1436 103.244 67.0415 100.371 68.5096L101.282 70.2904C104.409 68.6919 106.907 66.5898 108.745 63.9749L107.108 62.8251ZM100.379 68.5056C97.598 69.8962 94.4867 70.6 91.0266 70.6V72.6C94.7664 72.6 98.1884 71.8371 101.274 70.2944L100.379 68.5056ZM91.0266 70.6C86.9102 70.6 83.3189 69.701 80.2227 67.9318L79.2304 69.6682C82.6675 71.6323 86.6096 72.6 91.0266 72.6V70.6ZM80.2359 67.9394C77.1448 66.11 74.7405 63.4917 73.021 60.0528L71.2321 60.9472C73.1127 64.7083 75.775 67.6233 79.2172 69.6606L80.2359 67.9394ZM73.021 60.0528C71.3035 56.6177 70.4266 52.5435 70.4266 47.8H68.4266C68.4266 52.7899 69.3497 57.1823 71.2321 60.9472L73.021 60.0528ZM70.4266 47.8V15.2H68.4266V47.8H70.4266ZM69.4266 16.2H86.4266V14.2H69.4266V16.2ZM85.4266 15.2V45.5H87.4266V15.2H85.4266ZM85.4266 45.5C85.4266 49.4039 86.4402 52.5783 88.5963 54.8832L90.0568 53.5168C88.3463 51.6883 87.4266 49.0628 87.4266 45.5H85.4266ZM88.5963 54.8832C90.7484 57.1837 93.6299 58.3 97.1266 58.3V56.3C94.0899 56.3 91.7713 55.3496 90.0568 53.5168L88.5963 54.8832ZM97.1266 58.3C100.683 58.3 103.601 57.188 105.757 54.8832L104.296 53.5168C102.586 55.3453 100.237 56.3 97.1266 56.3V58.3ZM105.757 54.8832C107.913 52.5783 108.927 49.4039 108.927 45.5H106.927C106.927 49.0628 106.007 51.6883 104.296 53.5168L105.757 54.8832ZM108.927 45.5V15.2H106.927V45.5H108.927ZM107.927 16.2H125.027V14.2H107.927V16.2ZM168.409 56.5H169.409V55.5H168.409V56.5ZM168.409 71V72H169.409V71H168.409ZM145.209 66.5L144.547 67.249L144.555 67.2562L145.209 66.5ZM140.009 29.4H141.009V28.4H140.009V29.4ZM133.209 29.4H132.209V30.4H133.209V29.4ZM133.209 15.2V14.2H132.209V15.2H133.209ZM140.009 15.2V16.2H141.009V15.2H140.009ZM140.009 1.6V0.599999H139.009V1.6H140.009ZM157.109 1.6H158.109V0.599999H157.109V1.6ZM157.109 15.2H156.109V16.2H157.109V15.2ZM168.309 15.2H169.309V14.2H168.309V15.2ZM168.309 29.4V30.4H169.309V29.4H168.309ZM157.109 29.4V28.4H156.109V29.4H157.109ZM158.309 55.4L157.634 56.1372L157.634 56.1372L158.309 55.4ZM167.409 56.5V71H169.409V56.5H167.409ZM168.409 70H159.709V72H168.409V70ZM159.709 70C153.664 70 149.093 68.5386 145.864 65.7438L144.555 67.2562C148.259 70.4614 153.354 72 159.709 72V70ZM145.872 65.751C142.706 62.9506 141.009 58.3204 141.009 51.6H139.009C139.009 58.6129 140.779 63.9161 144.547 67.249L145.872 65.751ZM141.009 51.6V29.4H139.009V51.6H141.009ZM140.009 28.4H133.209V30.4H140.009V28.4ZM134.209 29.4V15.2H132.209V29.4H134.209ZM133.209 16.2H140.009V14.2H133.209V16.2ZM141.009 15.2V1.6H139.009V15.2H141.009ZM140.009 2.6H157.109V0.599999H140.009V2.6ZM156.109 1.6V15.2H158.109V1.6H156.109ZM157.109 16.2H168.309V14.2H157.109V16.2ZM167.309 15.2V29.4H169.309V15.2H167.309ZM168.309 28.4H157.109V30.4H168.309V28.4ZM156.109 29.4V51.8H158.109V29.4H156.109ZM156.109 51.8C156.109 53.598 156.538 55.1329 157.634 56.1372L158.985 54.6628C158.481 54.2004 158.109 53.3354 158.109 51.8H156.109ZM157.634 56.1372C158.712 57.1255 160.358 57.5 162.309 57.5V55.5C160.527 55.5 159.507 55.1412 158.985 54.6628L157.634 56.1372ZM162.309 57.5H168.409V55.5H162.309V57.5ZM188.534 68.3L188.06 69.1805L188.066 69.1835L188.534 68.3ZM178.234 58.3L177.365 58.7947L177.371 58.8047L178.234 58.3ZM178.334 28L179.198 28.5047L179.201 28.499L178.334 28ZM188.734 17.9L189.203 18.7835L189.203 18.7835L188.734 17.9ZM218.334 17.9L217.866 18.7835L217.866 18.7835L218.334 17.9ZM228.734 28L227.868 28.499L227.871 28.5047L228.734 28ZM228.634 58.3L227.773 57.7913L227.771 57.7953L228.634 58.3ZM218.134 68.3L217.671 67.4136L217.666 67.4165L218.134 68.3ZM211.634 53.4L210.917 52.7029L210.912 52.7081L210.907 52.7134L211.634 53.4ZM211.734 32.8L210.997 33.4757L211.002 33.4812L211.007 33.4866L211.734 32.8ZM195.234 32.8L195.962 33.4861L195.972 33.4757L195.234 32.8ZM195.134 53.4L194.387 54.0644L194.392 54.0701L194.397 54.0757L195.134 53.4ZM203.334 70.8C198.015 70.8 193.245 69.6661 189.003 67.4165L188.066 69.1835C192.624 71.6006 197.721 72.8 203.334 72.8V70.8ZM189.008 67.4195C184.84 65.1751 181.54 61.9733 179.098 57.7953L177.371 58.8047C179.995 63.2933 183.562 66.7582 188.06 69.1805L189.008 67.4195ZM179.103 57.8053C176.736 53.6457 175.534 48.7551 175.534 43.1H173.534C173.534 49.0449 174.8 54.2876 177.365 58.7947L179.103 57.8053ZM175.534 43.1C175.534 37.5184 176.766 32.6642 179.198 28.5047L177.471 27.4953C174.836 32.0025 173.534 37.2149 173.534 43.1H175.534ZM179.201 28.499C181.642 24.2587 184.972 21.0268 189.203 18.7835L188.266 17.0165C183.696 19.4398 180.093 22.9413 177.468 27.501L179.201 28.499ZM189.203 18.7835C193.445 16.5339 198.215 15.4 203.534 15.4V13.4C197.921 13.4 192.824 14.5994 188.266 17.0165L189.203 18.7835ZM203.534 15.4C208.854 15.4 213.624 16.5339 217.866 18.7835L218.803 17.0165C214.245 14.5994 209.148 13.4 203.534 13.4V15.4ZM217.866 18.7835C222.096 21.0268 225.426 24.2587 227.868 28.499L229.601 27.501C226.976 22.9413 223.372 19.4398 218.803 17.0165L217.866 18.7835ZM227.871 28.5047C230.303 32.6642 231.534 37.5184 231.534 43.1H233.534C233.534 37.2149 232.233 32.0025 229.598 27.4953L227.871 28.5047ZM231.534 43.1C231.534 48.6767 230.272 53.5635 227.773 57.7913L229.495 58.8087C232.197 54.2365 233.534 48.99 233.534 43.1H231.534ZM227.771 57.7953C225.333 61.9656 221.972 65.167 217.671 67.4137L218.597 69.1863C223.23 66.7663 226.869 63.301 229.498 58.8047L227.771 57.7953ZM217.666 67.4165C213.424 69.6661 208.654 70.8 203.334 70.8V72.8C208.948 72.8 214.045 71.6006 218.603 69.1835L217.666 67.4165ZM203.334 58C206.879 58 209.908 56.6842 212.361 54.0866L210.907 52.7134C208.827 54.9158 206.323 56 203.334 56V58ZM212.351 54.0971C214.92 51.4548 216.134 47.7375 216.134 43.1H214.134C214.134 47.3959 213.015 50.5452 210.917 52.7029L212.351 54.0971ZM216.134 43.1C216.134 38.4698 214.958 34.7565 212.461 32.1134L211.007 33.4866C213.044 35.6435 214.134 38.7968 214.134 43.1H216.134ZM212.472 32.1243C210.081 29.5169 207.08 28.2 203.534 28.2V30.2C206.522 30.2 208.987 31.2831 210.997 33.4757L212.472 32.1243ZM203.534 28.2C199.928 28.2 196.892 29.5121 194.497 32.1243L195.972 33.4757C197.977 31.2879 200.474 30.2 203.534 30.2V28.2ZM194.507 32.114C192.071 34.6977 190.934 38.4174 190.934 43.1H192.934C192.934 38.716 193.998 35.569 195.962 33.486L194.507 32.114ZM190.934 43.1C190.934 47.7158 192.037 51.4206 194.387 54.0644L195.882 52.7356C193.965 50.5794 192.934 47.4175 192.934 43.1H190.934ZM194.397 54.0757C196.787 56.6831 199.788 58 203.334 58V56C200.347 56 197.881 54.9169 195.872 52.7243L194.397 54.0757ZM252.206 68.3L251.732 69.1805L251.738 69.1835L252.206 68.3ZM241.906 58.3L241.037 58.7947L241.043 58.8047L241.906 58.3ZM242.006 28L242.87 28.5047L242.873 28.499L242.006 28ZM252.406 17.9L252.875 18.7835L252.875 18.7835L252.406 17.9ZM282.006 17.9L281.538 18.7835L281.538 18.7835L282.006 17.9ZM292.406 28L291.54 28.499L291.543 28.5047L292.406 28ZM292.306 58.3L291.445 57.7913L291.443 57.7953L292.306 58.3ZM281.806 68.3L281.343 67.4136L281.338 67.4165L281.806 68.3ZM275.306 53.4L274.589 52.7029L274.584 52.7081L274.579 52.7134L275.306 53.4ZM275.406 32.8L274.669 33.4757L274.674 33.4812L274.679 33.4866L275.406 32.8ZM258.906 32.8L259.634 33.4861L259.643 33.4757L258.906 32.8ZM258.806 53.4L258.059 54.0644L258.064 54.0701L258.069 54.0757L258.806 53.4ZM267.006 70.8C261.687 70.8 256.917 69.6661 252.675 67.4165L251.738 69.1835C256.296 71.6006 261.393 72.8 267.006 72.8V70.8ZM252.68 67.4195C248.512 65.1751 245.212 61.9733 242.77 57.7953L241.043 58.8047C243.667 63.2933 247.234 66.7582 251.732 69.1805L252.68 67.4195ZM242.775 57.8053C240.408 53.6457 239.206 48.7551 239.206 43.1H237.206C237.206 49.0449 238.472 54.2876 241.037 58.7947L242.775 57.8053ZM239.206 43.1C239.206 37.5184 240.438 32.6642 242.87 28.5047L241.143 27.4953C238.508 32.0025 237.206 37.2149 237.206 43.1H239.206ZM242.873 28.499C245.314 24.2587 248.644 21.0268 252.875 18.7835L251.938 17.0165C247.368 19.4398 243.765 22.9413 241.14 27.501L242.873 28.499ZM252.875 18.7835C257.117 16.5339 261.887 15.4 267.206 15.4V13.4C261.593 13.4 256.496 14.5994 251.938 17.0165L252.875 18.7835ZM267.206 15.4C272.526 15.4 277.296 16.5339 281.538 18.7835L282.475 17.0165C277.917 14.5994 272.82 13.4 267.206 13.4V15.4ZM281.538 18.7835C285.768 21.0268 289.098 24.2587 291.54 28.499L293.273 27.501C290.648 22.9413 287.044 19.4398 282.475 17.0165L281.538 18.7835ZM291.543 28.5047C293.975 32.6642 295.206 37.5184 295.206 43.1H297.206C297.206 37.2149 295.905 32.0025 293.27 27.4953L291.543 28.5047ZM295.206 43.1C295.206 48.6767 293.944 53.5635 291.445 57.7913L293.167 58.8087C295.869 54.2365 297.206 48.99 297.206 43.1H295.206ZM291.443 57.7953C289.005 61.9656 285.644 65.167 281.343 67.4137L282.269 69.1863C286.902 66.7663 290.541 63.301 293.17 58.8047L291.443 57.7953ZM281.338 67.4165C277.096 69.6661 272.326 70.8 267.006 70.8V72.8C272.62 72.8 277.717 71.6006 282.275 69.1835L281.338 67.4165ZM267.006 58C270.551 58 273.58 56.6842 276.033 54.0866L274.579 52.7134C272.499 54.9158 269.995 56 267.006 56V58ZM276.023 54.0971C278.592 51.4548 279.806 47.7375 279.806 43.1H277.806C277.806 47.3959 276.687 50.5452 274.589 52.7029L276.023 54.0971ZM279.806 43.1C279.806 38.4698 278.63 34.7565 276.133 32.1134L274.679 33.4866C276.716 35.6435 277.806 38.7968 277.806 43.1H279.806ZM276.143 32.1243C273.753 29.5169 270.752 28.2 267.206 28.2V30.2C270.194 30.2 272.659 31.2831 274.669 33.4757L276.143 32.1243ZM267.206 28.2C263.6 28.2 260.564 29.5121 258.169 32.1243L259.643 33.4757C261.649 31.2879 264.146 30.2 267.206 30.2V28.2ZM258.179 32.114C255.743 34.6977 254.606 38.4174 254.606 43.1H256.606C256.606 38.716 257.67 35.569 259.634 33.486L258.179 32.114ZM254.606 43.1C254.606 47.7158 255.709 51.4206 258.059 54.0644L259.554 52.7356C257.637 50.5794 256.606 47.4175 256.606 43.1H254.606ZM258.069 54.0757C260.459 56.6831 263.46 58 267.006 58V56C264.019 56 261.553 54.9169 259.543 52.7243L258.069 54.0757Z" fill="white" fill-opacity="0.2"/>
</svg>
